:FULLY-SPECIFIED
:FORCE-ALL-JOINTS-BE-3DOF
:DEGREES
815
root 1.92819 16.6181 22.5916 4.34829 -0.517654 -7.02432
lfemur -36.3952 -1.09528 2.22985
ltibia 21.1333 -0 0
lfoot 0 0 0
ltoes 0 0 0
rfemur 0 0 0
rtibia 0 0 0
rfoot 0 0 0
rtoes -25.1927 0 0
lowerback 0 0 0
upperback 0 0 0
thorax 0 0 0
lowerneck 0 0 0
upperneck 0 0 0
head 0 0 0
lclavicle 0 0 0
lhumerus -53.6038 -6.41864 90.7418
lradius 53.7329 -0 0
lwrist 0 0 0
lhand -7.8496 5.2796 0.00935563
lfingers 0 0 0
lthumb 0 0 0
rclavicle 0 0 0
rhumerus -30.2746 45.1909 -109.371
rradius 67.6925 -0 0
rwrist -1.72391 0 0
rhand 0 0 0
rfingers 0 0 0
rthumb 16.9806 -52.543 0.0869459
816
root 1.96714 16.61 22.7477 4.43359 -1.82527 -7.20901
lfemur -36.1988 -1.00358 2.75098
ltibia 19.6805 -0 0
lfoot 0 0 0
ltoes 0 0 0
rfemur 0 0 0
rtibia 0 0 0
rfoot 0 0 0
rtoes -25.4522 0 0
lowerback 0 0 0
upperback 0 0 0
thorax 0 0 0
lowerneck 0 0 0
upperneck 0 0 0
head 0 0 0
lclavicle 0 0 0
lhumerus -53.53 -6.32903 90.6591
lradius 53.1634 -0 0
lwrist 0 0 0
lhand -7.6166 5.35254 0.00647674
lfingers 0 0 0
lthumb 0 0 0
rclavicle 0 0 0
rhumerus -30.0367 45.1824 -109.066
rradius 67.456 -0 0
rwrist -1.97903 0 0
rhand 0 0 0
rfingers 0 0 0
rthumb 17.5648 -52.2735 0.0601806
817
root 2.00817 16.6016 22.9055 4.50664 -2.89586 -7.36183
lfemur -36.0374 -0.929814 3.17796
ltibia 18.4909 -0 0
lfoot 0 0 0
ltoes 0 0 0
rfemur 0 0 0
rtibia 0 0 0
rfoot 0 0 0
rtoes -25.6647 0 0
lowerback 0 0 0
upperback 0 0 0
thorax 0 0 0
lowerneck 0 0 0
upperneck 0 0 0
head 0 0 0
lclavicle 0 0 0
lhumerus -53.4696 -6.25557 90.5915
lradius 52.697 -0 0
lwrist 0 0 0
lhand -7.42581 5.41226 0.00389835
lfingers 0 0 0
lthumb 0 0 0
rclavicle 0 0 0
rhumerus -29.842 45.1747 -108.817
rradius 67.2623 -0 0
rwrist -2.18795 0 0
rhand 0 0 0
rfingers 0 0 0
rthumb 18.0431 -52.053 0.036217
818
root 2.05133 16.5929 23.065 4.56336 -3.69867 -7.47746
lfemur -35.9159 -0.875285 3.49832
ltibia 17.5986 -0 0
lfoot 0 0 0
ltoes 0 0 0
rfemur 0 0 0
rtibia 0 0 0
rfoot 0 0 0
rtoes -25.824 0 0
lowerback 0 0 0
upperback 0 0 0
thorax 0 0 0
lowerneck 0 0 0
upperneck 0 0 0
head 0 0 0
lclavicle 0 0 0
lhumerus -53.4244 -6.20043 90.5408
lradius 52.3473 -0 0
lwrist 0 0 0
lhand -7.28271 5.45704 0.00183406
lfingers 0 0 0
lthumb 0 0 0
rclavicle 0 0 0
rhumerus -29.696 45.1686 -108.629
rradius 67.117 -0 0
rwrist -2.34465 0 0
rhand 0 0 0
rfingers 0 0 0
rthumb 18.4018 -51.8877 0.0170369
819
root 2.09664 16.5839 23.2261 4.59984 -4.20294 -7.55055
lfemur -35.8395 -0.841376 3.69963
ltibia 17.0381 -0 0
lfoot 0 0 0
ltoes 0 0 0
rfemur 0 0 0
rtibia 0 0 0
rfoot 0 0 0
rtoes -25.9242 0 0
lowerback 0 0 0
upperback 0 0 0
thorax 0 0 0
lowerneck 0 0 0
upperneck 0 0 0
head 0 0 0
lclavicle 0 0 0
lhumerus -53.396 -6.16577 90.509
lradius 52.1275 -0 0
lwrist 0 0 0
lhand -7.19282 5.48517 0.000480065
lfingers 0 0 0
lthumb 0 0 0
rclavicle 0 0 0
rhumerus -29.6043 45.1645 -108.512
rradius 67.0258 -0 0
rwrist -2.44308 0 0
rhand 0 0 0
rfingers 0 0 0
rthumb 18.627 -51.784 0.00445904
820
root 2.14416 16.5748 23.3889 4.61266 -4.37788 -7.576
lfemur -35.8129 -0.829675 3.76948
ltibia 16.8436 0 0
lfoot -7.6782 14.9523 0
ltoes 19.0378 0 0
rfemur 5.83887 6.48206 22.2095
rtibia 18.917 0 0
rfoot -21.3786 -12.2951 0
rtoes -25.9589 0 0
lowerback 0.0205861 6.85666 5.95921
upperback -0.314538 9.1501 0.00260752
thorax 0.58729 4.58326 -3.16423
lowerneck -5.50381 -1.44827 3.32656
upperneck 0.235501 -2.16531 1.33786
head 0.964776 -1.05151 -0.192986
lclavicle -2.48481e-16 0 0
lhumerus -53.3862 -6.15374 90.498
lradius 52.0513 0 0
lwrist 18.4542 0 0
lhand -7.16163 5.49493 0
lfingers 7.12502 0 0
lthumb 18.7154 34.6146 0
rclavicle -2.48481e-16 0 0
rhumerus -29.5725 45.1631 -108.471
rradius 66.9941 0 0
rwrist -2.47723 0 0
rhand -7.17223 -22.6272 0
rfingers 7.12502 0 0
rthumb 18.7052 -51.748 0
821
root 2.19586 16.5643 23.5564 4.35595 -4.28367 -7.45611
lfemur 0 0 0
ltibia 0 0 0
lfoot -7.56322 14.3272 -0.0218982
ltoes 18.4509 -0 0
rfemur 5.37374 6.17637 21.6699
rtibia 20.4516 -0 0
rfoot 0 0 0
rtoes 0 0 0
lowerback 0 0 0
upperback -0.325972 9.09805 0.0299019
thorax 0 0 0
lowerneck 0 0 0
upperneck 0.475487 -2.2458 1.33811
head 0 0 0
lclavicle 0 0 0
lhumerus -53.4427 -6.09472 90.3642
lradius 52.0915 -0 0
lwrist 0 0 0
lhand -7.09754 5.46756 -0.000528018
lfingers 0 0 0
lthumb 18.777 34.5809 -0.000625514
rclavicle 0 0 0
rhumerus -29.5131 44.5709 -107.509
rradius 66.6709 -0 0
rwrist 0 0 0
rhand 0 0 0
rfingers 0 0 0
rthumb 0 0 0
822
root 2.25327 16.5516 23.7311 4.0258 -4.16159 -7.30242
lfemur 0 0 0
ltibia 0 0 0
lfoot -7.41485 13.5223 -0.0482397
ltoes 17.6954 -0 0
rfemur 4.77963 5.77648 20.9795
rtibia 22.4271 -0 0
rfoot 0 0 0
rtoes 0 0 0
lowerback 0 0 0
upperback -0.340727 9.03105 0.0650491
thorax 0 0 0
lowerneck 0 0 0
upperneck 0.784455 -2.34943 1.33793
head 0 0 0
lclavicle 0 0 0
lhumerus -53.5156 -6.01894 90.1918
lradius 52.1433 -0 0
lwrist 0 0 0
lhand -7.01503 5.43232 -0.00116268
lfingers 0 0 0
lthumb 18.8563 34.5374 -0.00137736
rclavicle 0 0 0
rhumerus -29.4578 43.8076 -106.286
rradius 66.2549 -0 0
rwrist 0 0 0
rhand 0 0 0
rfingers 0 0 0
rthumb 0 0 0
823
root 2.31577 16.5368 23.9122 3.6313 -4.01439 -7.11949
lfemur 0 0 0
ltibia 0 0 0
lfoot -7.23687 12.5593 -0.0770131
ltoes 16.7914 -0 0
rfemur 4.07577 5.28876 20.1596
rtibia 24.7906 -0 0
rfoot 0 0 0
rtoes 0 0 0
lowerback 0 0 0
upperback -0.358431 8.9509 0.107115
thorax 0 0 0
lowerneck 0 0 0
upperneck 1.15414 -2.4734 1.33698
head 0 0 0
lclavicle 0 0 0
lhumerus -53.6031 -5.92856 89.9856
lradius 52.2053 -0 0
lwrist 0 0 0
lhand -6.91631 5.39015 -0.00185533
lfingers 0 0 0
lthumb 18.9512 34.4855 -0.00219791
rclavicle 0 0 0
rhumerus -29.4218 42.8935 -104.843
rradius 65.7572 -0 0
rwrist 0 0 0
rhand 0 0 0
rfingers 0 0 0
rthumb 0 0 0
824
root 2.38274 16.5203 24.0989 3.18154 -3.84477 -6.91192
lfemur 0 0 0
ltibia 0 0 0
lfoot -7.03311 11.4597 -0.106203
ltoes 15.7593 -0 0
rfemur 3.28142 4.71974 19.2316
rtibia 27.4894 -0 0
rfoot 0 0 0
rtoes 0 0 0
lowerback 0 0 0
upperback -0.378713 8.85941 0.155164
thorax 0 0 0
lowerneck 0 0 0
upperneck 1.5763 -2.61494 1.33491
head 0 0 0
lclavicle 0 0 0
lhumerus -53.7034 -5.82575 89.7499
lradius 52.2761 -0 0
lwrist 0 0 0
lhand -6.80359 5.34201 -0.00255736
lfingers 0 0 0
lthumb 19.0596 34.4261 -0.00302956
rclavicle 0 0 0
rhumerus -29.4191 41.8494 -103.223
rradius 65.1889 -0 0
rwrist 0 0 0
rhand 0 0 0
rfingers 0 0 0
rthumb 0 0 0
825
root 2.45354 16.5024 24.2901 2.68555 -3.65555 -6.68425
lfemur 0 0 0
ltibia 0 0 0
lfoot -6.80743 10.2449 -0.133894
ltoes 14.6193 -0 0
rfemur 2.41558 4.07649 18.2167
rtibia 30.4703 -0 0
rfoot 0 0 0
rtoes 0 0 0
lowerback 0 0 0
upperback -0.401201 8.75836 0.208263
thorax 0 0 0
lowerneck 0 0 0
upperneck 2.04266 -2.77126 1.33142
head 0 0 0
lclavicle 0 0 0
lhumerus -53.8147 -5.71266 89.4894
lradius 52.3542 -0 0
lwrist 0 0 0
lhand -6.67909 5.28883 -0.00322272
lfingers 0 0 0
lthumb 19.1793 34.3606 -0.00381778
rclavicle 0 0 0
rhumerus -29.4614 40.6966 -101.463
rradius 64.5611 -0 0
rwrist 0 0 0
rhand 0 0 0
rfingers 0 0 0
rthumb 0 0 0
826
root 2.52757 16.4834 24.485 2.15238 -3.44957 -6.44096
lfemur 0 0 0
ltibia 0 0 0
lfoot -6.56379 8.93659 -0.158356
ltoes 13.3916 -0 0
rfemur 1.49677 3.36687 17.1356
rtibia 33.6805 -0 0
rfoot 0 0 0
rtoes 0 0 0
lowerback 0 0 0
upperback -0.425517 8.64957 0.265475
thorax 0 0 0
lowerneck 0 0 0
upperneck 2.54498 -2.93957 1.32623
head 0 0 0
lclavicle 0 0 0
lhumerus -53.9351 -5.59144 89.2087
lradius 52.4384 -0 0
lwrist 0 0 0
lhand -6.54501 5.23156 -0.00381003
lfingers 0 0 0
lthumb 19.3082 34.29 -0.00451353
rclavicle 0 0 0
rhumerus -29.5574 39.4568 -99.5998
rradius 63.8851 -0 0
rwrist 0 0 0
rhand 0 0 0
rfingers 0 0 0
rthumb 0 0 0
